<svg viewBox="0 0 598 116" xmlns="http://www.w3.org/2000/svg">
  <defs>
    <!-- Gradient for the bookmark -->
    <linearGradient id="bookmarkGradient" x1="0%" y1="0%" x2="100%" y2="100%">
      <stop offset="0%" style="stop-color:#4F46E5;stop-opacity:1" />
      <stop offset="100%" style="stop-color:#7C3AED;stop-opacity:1" />
    </linearGradient>
    
    <!-- Gradient for the S flow -->
    <linearGradient id="flowGradient" x1="0%" y1="0%" x2="0%" y2="100%">
      <stop offset="0%" style="stop-color:#FFFFFF;stop-opacity:0.3" />
      <stop offset="50%" style="stop-color:#FFFFFF;stop-opacity:1" />
      <stop offset="100%" style="stop-color:#FFFFFF;stop-opacity:0.3" />
    </linearGradient>
    
    <!-- Shadow filter -->
    <filter id="shadow" x="-50%" y="-50%" width="200%" height="200%">
      <feGaussianBlur in="SourceAlpha" stdDeviation="3"/>
      <feOffset dx="0" dy="2" result="offsetblur"/>
      <feFlood flood-color="#000000" flood-opacity="0.2"/>
      <feComposite in2="offsetblur" operator="in"/>
      <feMerge>
        <feMergeNode/>
        <feMergeNode in="SourceGraphic"/>
      </feMerge>
    </filter>
  </defs>
  
  <!-- Icon Section -->
  <g transform="translate(10, -2)">
    <!-- Bookmark shape -->
    <path d="M 35 20 
             L 85 20 
             Q 90 20 90 25 
             L 90 85 
             L 62.5 70 
             L 35 85 
             L 35 25 
             Q 35 20 40 20 Z" 
          fill="url(#bookmarkGradient)" 
          filter="url(#shadow)"/>
    
    <!-- S-shaped flow -->
    <g>
      <!-- Main S curve -->
      <path d="M 52 32 
               Q 48 38, 55 42
               Q 62 46, 62.5 45
               Q 63 44, 70 48
               Q 77 52, 73 58" 
            stroke="url(#flowGradient)" 
            stroke-width="3" 
            fill="none" 
            stroke-linecap="round"
            opacity="0.9"/>
      
      <!-- Thinner parallel S curves for depth -->
      <path d="M 54 31 
               Q 50 37, 57 41
               Q 64 45, 64.5 44
               Q 65 43, 72 47
               Q 79 51, 75 57" 
            stroke="#FFFFFF" 
            stroke-width="1.5" 
            fill="none" 
            stroke-linecap="round"
            opacity="0.5"/>
      
      <path d="M 50 33 
               Q 46 39, 53 43
               Q 60 47, 60.5 46
               Q 61 45, 68 49
               Q 75 53, 71 59" 
            stroke="#FFFFFF" 
            stroke-width="1.5" 
            fill="none" 
            stroke-linecap="round"
            opacity="0.5"/>
      
      <!-- Data nodes along the flow -->
      <circle cx="52" cy="32" r="2.5" fill="#FFFFFF" opacity="1"/>
      <circle cx="62.5" cy="45" r="3.5" fill="#FFFFFF" opacity="1"/>
      <circle cx="73" cy="58" r="2.5" fill="#FFFFFF" opacity="1"/>
      
      <!-- Small connecting dots -->
      <circle cx="55" cy="36" r="1" fill="#FFFFFF" opacity="0.7"/>
      <circle cx="58" cy="40" r="1" fill="#FFFFFF" opacity="0.7"/>
      <circle cx="67" cy="48" r="1" fill="#FFFFFF" opacity="0.7"/>
      <circle cx="70" cy="52" r="1" fill="#FFFFFF" opacity="0.7"/>
    </g>
    
    <!-- Inner highlight on bookmark -->
    <path d="M 45 30 
             L 75 30 
             Q 80 30 80 35 
             L 80 65 
             L 62.5 55 
             L 45 65 
             L 45 35 
             Q 45 30 50 30 Z" 
          fill="#FFFFFF" 
          opacity="0.1"/>
  </g>
  
  <!-- Text Section -->
  <g transform="translate(105, -2)">
    <!-- "Savvy" text with gradient -->
    <defs>
      <linearGradient id="textGradient" x1="0%" y1="0%" x2="100%" y2="0%">
        <stop offset="0%" style="stop-color:#4F46E5;stop-opacity:1" />
        <stop offset="100%" style="stop-color:#7C3AED;stop-opacity:1" />
      </linearGradient>
    </defs>
    <text x="0" y="77" 
          font-family="system-ui, -apple-system, 'Segoe UI', Roboto, sans-serif" 
          font-size="60" 
          font-weight="600" 
          fill="url(#textGradient)">Savvy</text>
  </g>
</svg>